<svg xmlns="http://www.w3.org/2000/svg" xmlns:xlink="http://www.w3.org/1999/xlink" width="226" height="226" viewBox="0 0 226 226">
  <defs>
    <clipPath id="clip-path">
      <circle id="Ellipse_2" data-name="Ellipse 2" cx="97.999" cy="97.999" r="97.999" transform="translate(87.417 87.356)" fill="none"/>
    </clipPath>
  </defs>
  <g id="Group_33" data-name="Group 33" transform="translate(-72.4 -72.4)">
    <g id="Group_1" data-name="Group 1">
      <circle id="Ellipse_1" data-name="Ellipse 1" cx="105.499" cy="105.499" r="105.499" transform="translate(79.917 79.857)" fill="#005295"/>
      <path id="Path_1" data-name="Path 1" d="M185.4,87.4a98,98,0,1,1-98,98,98.159,98.159,0,0,1,98-98m0-15a113,113,0,1,0,113,113,113.01,113.01,0,0,0-113-113Z" fill="#001a30"/>
    </g>
    <g id="Group_18" data-name="Group 18">
      <g id="Group_3" data-name="Group 3">
        <g id="Group_2" data-name="Group 2" clip-path="url(#clip-path)">
          <path id="Path_2" data-name="Path 2" d="M229,254.8l1.9-4.7,1.9,4.7,4.7,1.9-4.8,1.8-1.8,4.8-1.9-4.8-4.7-1.9Z" fill="#fed41e"/>
        </g>
      </g>
      <g id="Group_5" data-name="Group 5">
        <g id="Group_4" data-name="Group 4" clip-path="url(#clip-path)">
          <path id="Path_3" data-name="Path 3" d="M135.6,85.2a1.4,1.4,0,1,0-1.4,1.4,1.367,1.367,0,0,0,1.4-1.4" fill="#fed41e"/>
        </g>
      </g>
      <g id="Group_7" data-name="Group 7">
        <g id="Group_6" data-name="Group 6" clip-path="url(#clip-path)">
          <path id="Path_4" data-name="Path 4" d="M95.6,186.2a8.115,8.115,0,0,0,4.2,5.8,8.115,8.115,0,0,0-4.2,5.8,8.115,8.115,0,0,0-4.2-5.8,8.115,8.115,0,0,0,4.2-5.8" fill="#fed41e"/>
        </g>
      </g>
      <g id="Group_9" data-name="Group 9">
        <g id="Group_8" data-name="Group 8" clip-path="url(#clip-path)">
          <path id="Path_5" data-name="Path 5" d="M204.8,87.4a9.32,9.32,0,0,0,4.7,6.5,9.32,9.32,0,0,0-4.7,6.5,9.32,9.32,0,0,0-4.7-6.5,9.32,9.32,0,0,0,4.7-6.5" fill="#fed41e"/>
        </g>
      </g>
      <g id="Group_11" data-name="Group 11">
        <g id="Group_10" data-name="Group 10" clip-path="url(#clip-path)">
          <path id="Path_6" data-name="Path 6" d="M156.2,261.4a6.638,6.638,0,0,0,3.4,4.7,6.379,6.379,0,0,0-3.4,4.7,6.638,6.638,0,0,0-3.4-4.7,6.205,6.205,0,0,0,3.4-4.7" fill="#fed41e"/>
        </g>
      </g>
      <g id="Group_13" data-name="Group 13">
        <g id="Group_12" data-name="Group 12" clip-path="url(#clip-path)">
          <path id="Path_7" data-name="Path 7" d="M88.9,201.3a1.4,1.4,0,1,1,1.4,1.4,1.367,1.367,0,0,1-1.4-1.4" fill="#fed41e"/>
        </g>
      </g>
      <g id="Group_15" data-name="Group 15">
        <g id="Group_14" data-name="Group 14" clip-path="url(#clip-path)">
          <path id="Path_8" data-name="Path 8" d="M262.6,187.9a1.4,1.4,0,1,1,1.4,1.4,1.367,1.367,0,0,1-1.4-1.4" fill="#fed41e"/>
        </g>
      </g>
      <g id="Group_17" data-name="Group 17">
        <g id="Group_16" data-name="Group 16" clip-path="url(#clip-path)">
          <path id="Path_9" data-name="Path 9" d="M134,118.8a1.4,1.4,0,1,1,1.4,1.4,1.312,1.312,0,0,1-1.4-1.4" fill="#fed41e"/>
        </g>
      </g>
    </g>
    <circle id="Ellipse_10" data-name="Ellipse 10" cx="66.6" cy="66.6" r="66.6" transform="translate(118.7 118.8)" fill="#00a8da" stroke="#001a30" stroke-miterlimit="10" stroke-width="4"/>
    <g id="Group_22" data-name="Group 22">
      <line id="Line_1" data-name="Line 1" x2="16.8" y2="63" transform="translate(222.8 138)" fill="none" stroke="#fff" stroke-miterlimit="10" stroke-width="3" stroke-dasharray="6 6"/>
      <line id="Line_2" data-name="Line 2" x1="31.5" y2="21.8" transform="translate(179 135.6)" fill="none" stroke="#fff" stroke-miterlimit="10" stroke-width="3" stroke-dasharray="6 6"/>
      <line id="Line_3" data-name="Line 3" x1="29.6" y2="28.7" transform="translate(203.6 220.8)" fill="none" stroke="#fff" stroke-miterlimit="10" stroke-width="3" stroke-dasharray="6 6"/>
      <line id="Line_4" data-name="Line 4" x1="40" y1="10.1" transform="translate(169.3 120.7)" fill="none" stroke="#fff" stroke-miterlimit="10" stroke-width="3" stroke-dasharray="6 6"/>
      <line id="Line_5" data-name="Line 5" x1="22.2" y1="20.1" transform="translate(226.8 142.9)" fill="none" stroke="#fff" stroke-miterlimit="10" stroke-width="3" stroke-dasharray="6 6"/>
      <line id="Line_6" data-name="Line 6" x1="38.2" y1="3.3" transform="translate(193.9 213.3)" fill="none" stroke="#fff" stroke-miterlimit="10" stroke-width="3" stroke-dasharray="6 6"/>
      <line id="Line_7" data-name="Line 7" x1="8" y2="2.1" transform="translate(218.4 174.5)" fill="none" stroke="#fff" stroke-miterlimit="10" stroke-width="3" stroke-dasharray="6 6"/>
      <line id="Line_8" data-name="Line 8" x1="8" y2="2.1" transform="translate(234.6 170.2)" fill="none" stroke="#fff" stroke-miterlimit="10" stroke-width="3" stroke-dasharray="6 6"/>
      <line id="Line_9" data-name="Line 9" x1="10.1" y2="31.1" transform="translate(243.5 172.3)" fill="none" stroke="#fff" stroke-miterlimit="10" stroke-width="3" stroke-dasharray="6 6"/>
      <line id="Line_10" data-name="Line 10" x2="24.4" y2="20.9" transform="translate(205.6 184.1)" fill="none" stroke="#fff" stroke-miterlimit="10" stroke-width="3" stroke-dasharray="6 6"/>
      <line id="Line_11" data-name="Line 11" y1="33.4" x2="12.2" transform="translate(205.6 142.4)" fill="none" stroke="#fff" stroke-miterlimit="10" stroke-width="3" stroke-dasharray="6 6"/>
      <g id="Group_19" data-name="Group 19">
        <rect id="Rectangle_1" data-name="Rectangle 1" width="9.3" height="14.2" transform="translate(216.234 131.063) rotate(-14.898)" fill="#fed41e" stroke="#001a30" stroke-miterlimit="10" stroke-width="4"/>
        <rect id="Rectangle_2" data-name="Rectangle 2" width="13.4" height="9.4" transform="translate(203.911 136.797) rotate(-14.898)" fill="#d0d2d3" stroke="#001a30" stroke-miterlimit="10" stroke-width="4"/>
        <rect id="Rectangle_3" data-name="Rectangle 3" width="13.4" height="9.4" transform="translate(225.925 130.995) rotate(-14.898)" fill="#d0d2d3" stroke="#001a30" stroke-miterlimit="10" stroke-width="4"/>
      </g>
      <g id="Group_20" data-name="Group 20">
        <rect id="Rectangle_4" data-name="Rectangle 4" width="9.3" height="14.2" transform="translate(235.52 203.461) rotate(-14.898)" fill="#fed41e" stroke="#001a30" stroke-miterlimit="10" stroke-width="4"/>
        <rect id="Rectangle_5" data-name="Rectangle 5" width="13.4" height="9.4" transform="translate(223.223 209.292) rotate(-14.898)" fill="#d0d2d3" stroke="#001a30" stroke-miterlimit="10" stroke-width="4"/>
        <rect id="Rectangle_6" data-name="Rectangle 6" width="13.4" height="9.4" transform="translate(245.212 203.393) rotate(-14.898)" fill="#d0d2d3" stroke="#001a30" stroke-miterlimit="10" stroke-width="4"/>
      </g>
      <g id="Group_21" data-name="Group 21">
        <rect id="Rectangle_7" data-name="Rectangle 7" width="12.9" height="8.4" transform="translate(242.15 166.008) rotate(-14.898)" fill="#d0d2d3" stroke="#001a30" stroke-miterlimit="10" stroke-width="4"/>
      </g>
    </g>
    <g id="Group_32" data-name="Group 32">
      <g id="Group_23" data-name="Group 23">
        <path id="Path_10" data-name="Path 10" d="M202.5,243.7l-2.7.7-1.5-5.5,2.7-.7Zm-2.9-11-2.7.7-1.5-5.5,2.7-.7ZM196,219.4l-2.7.7-1.5-5.5,2.7-.7Zm-3-10.9-2.7.7-1.5-5.5,2.7-.7Zm-2.9-10.9-2.7.7-1.5-5.5,2.7-.7Zm-3-11-2.7.7-1.5-5.5,2.7-.7ZM182,167.5l-2.7.7-1.5-5.5,2.7-.7Zm-3.7-13.7-2.7.7-1.5-5.5,2.7-.7Zm-3-11-2.7.7-1.5-5.5,2.7-.7Zm-2.9-10.9-2.7.7-1.5-5.5,2.7-.7Z" fill="#fff"/>
      </g>
      <line id="Line_12" data-name="Line 12" x2="17" y2="62.9" transform="translate(128.9 163.2)" fill="none" stroke="#fff" stroke-miterlimit="10" stroke-width="3" stroke-dasharray="6 6"/>
      <line id="Line_13" data-name="Line 13" x2="38.2" y2="3.2" transform="translate(138.3 154.9)" fill="none" stroke="#fff" stroke-miterlimit="10" stroke-width="3" stroke-dasharray="6 6"/>
      <line id="Line_14" data-name="Line 14" x2="40" y2="10" transform="translate(161.3 240.1)" fill="none" stroke="#fff" stroke-miterlimit="10" stroke-width="3" stroke-dasharray="6 6"/>
      <line id="Line_15" data-name="Line 15" y1="28.8" x2="29.5" transform="translate(137.1 121.4)" fill="none" stroke="#fff" stroke-miterlimit="10" stroke-width="3" stroke-dasharray="6 6"/>
      <line id="Line_16" data-name="Line 16" y1="28.5" x2="9.2" transform="translate(118.7 169.4)" fill="none" stroke="#fff" stroke-miterlimit="10" stroke-width="3" stroke-dasharray="6 6"/>
      <line id="Line_17" data-name="Line 17" y1="21.9" x2="31.4" transform="translate(160.2 213.9)" fill="none" stroke="#fff" stroke-miterlimit="10" stroke-width="3" stroke-dasharray="6 6"/>
      <line id="Line_18" data-name="Line 18" y1="2.1" x2="8" transform="translate(144.1 194.4)" fill="none" stroke="#fff" stroke-miterlimit="10" stroke-width="3" stroke-dasharray="6 6"/>
      <line id="Line_19" data-name="Line 19" y1="2.2" x2="8" transform="translate(127.9 198.7)" fill="none" stroke="#fff" stroke-miterlimit="10" stroke-width="3" stroke-dasharray="6 6"/>
      <line id="Line_20" data-name="Line 20" x2="24.3" y2="21.9" transform="translate(119.4 208.3)" fill="none" stroke="#fff" stroke-miterlimit="10" stroke-width="3" stroke-dasharray="6 6"/>
      <line id="Line_21" data-name="Line 21" x1="10.6" y2="30.3" transform="translate(156.2 194.4)" fill="none" stroke="#fff" stroke-miterlimit="10" stroke-width="3" stroke-dasharray="6 6"/>
      <line id="Line_22" data-name="Line 22" x1="27.3" y1="22.9" transform="translate(135.4 164.4)" fill="none" stroke="#fff" stroke-miterlimit="10" stroke-width="3" stroke-dasharray="6 6"/>
      <g id="Group_24" data-name="Group 24">
        <rect id="Rectangle_8" data-name="Rectangle 8" width="9.3" height="14.2" transform="translate(122.08 156.311) rotate(-15.099)" fill="#fed41e" stroke="#001a30" stroke-miterlimit="10" stroke-width="4"/>
        <rect id="Rectangle_9" data-name="Rectangle 9" width="13.4" height="9.4" transform="translate(131.731 156.127) rotate(-15.099)" fill="#d0d2d3" stroke="#001a30" stroke-miterlimit="10" stroke-width="4"/>
        <rect id="Rectangle_10" data-name="Rectangle 10" width="13.4" height="9.4" transform="translate(109.791 162.076) rotate(-15.099)" fill="#d0d2d3" stroke="#001a30" stroke-miterlimit="10" stroke-width="4"/>
      </g>
      <g id="Group_25" data-name="Group 25">
        <rect id="Rectangle_11" data-name="Rectangle 11" width="9.3" height="14.2" transform="translate(141.623 228.649) rotate(-15.099)" fill="#fed41e" stroke="#001a30" stroke-miterlimit="10" stroke-width="4"/>
        <rect id="Rectangle_12" data-name="Rectangle 12" width="13.4" height="9.4" transform="translate(151.274 228.464) rotate(-15.099)" fill="#d0d2d3" stroke="#001a30" stroke-miterlimit="10" stroke-width="4"/>
        <rect id="Rectangle_13" data-name="Rectangle 13" width="13.4" height="9.4" transform="translate(129.238 234.439) rotate(-15.099)" fill="#d0d2d3" stroke="#001a30" stroke-miterlimit="10" stroke-width="4"/>
      </g>
      <g id="Group_26" data-name="Group 26">
        <rect id="Rectangle_14" data-name="Rectangle 14" width="12.9" height="8.4" transform="translate(160.697 118.668) rotate(-15.099)" fill="#d0d2d3" stroke="#001a30" stroke-miterlimit="10" stroke-width="4"/>
      </g>
      <g id="Group_27" data-name="Group 27">
        <rect id="Rectangle_15" data-name="Rectangle 15" width="16.5" height="25.101" transform="translate(174.081 175.368) rotate(-15.099)" fill="#fed41e" stroke="#001a30" stroke-miterlimit="10" stroke-width="4"/>
        <rect id="Rectangle_16" data-name="Rectangle 16" width="23.701" height="16.6" transform="translate(191.182 175.164) rotate(-15.099)" fill="#d0d2d3" stroke="#001a30" stroke-miterlimit="10" stroke-width="4"/>
        <rect id="Rectangle_17" data-name="Rectangle 17" width="23.701" height="16.6" transform="translate(152.365 185.726) rotate(-15.099)" fill="#d0d2d3" stroke="#001a30" stroke-miterlimit="10" stroke-width="4"/>
      </g>
      <g id="Group_28" data-name="Group 28">
        <rect id="Rectangle_18" data-name="Rectangle 18" width="12.9" height="8.4" transform="translate(113.665 200.32) rotate(-15.099)" fill="#d0d2d3" stroke="#001a30" stroke-miterlimit="10" stroke-width="4"/>
      </g>
      <g id="Group_29" data-name="Group 29">
        <rect id="Rectangle_19" data-name="Rectangle 19" width="12.9" height="8.4" transform="translate(195.414 247.326) rotate(-15.099)" fill="#d0d2d3" stroke="#001a30" stroke-miterlimit="10" stroke-width="4"/>
      </g>
      <g id="Group_30" data-name="Group 30">
        <rect id="Rectangle_20" data-name="Rectangle 20" width="12.9" height="8.4" transform="translate(186.715 215.066) rotate(-15.099)" fill="#d0d2d3" stroke="#001a30" stroke-miterlimit="10" stroke-width="4"/>
      </g>
      <g id="Group_31" data-name="Group 31">
        <rect id="Rectangle_21" data-name="Rectangle 21" width="12.9" height="8.4" transform="translate(169.396 150.928) rotate(-15.099)" fill="#d0d2d3" stroke="#001a30" stroke-miterlimit="10" stroke-width="4"/>
      </g>
    </g>
  </g>
</svg>
